<?xml version="1.0" standalone="no"?>
<!DOCTYPE svg PUBLIC "-//W3C//DTD SVG 20010904//EN"
 "http://www.w3.org/TR/2001/REC-SVG-20010904/DTD/svg10.dtd">
<svg version="1.0" xmlns="http://www.w3.org/2000/svg"
 width="1400.000000pt" height="1400.000000pt" viewBox="0 0 1400.000000 1400.000000"
 preserveAspectRatio="xMidYMid meet">
<metadata>
Created by potrace 1.11, written by Peter Selinger 2001-2013
</metadata>
<g transform="translate(0.000000,1400.000000) scale(0.100000,-0.100000)"
fill="#000000" stroke="none">
<path d="M1303 10873 c2 -1721 6 -3148 9 -3173 3 -25 9 -88 13 -140 4 -52 8
-111 10 -130 2 -19 7 -73 10 -120 4 -47 9 -94 11 -105 4 -19 8 -53 20 -150 2
-22 7 -51 9 -65 2 -14 7 -43 10 -65 7 -54 43 -274 50 -305 3 -14 10 -52 16
-85 45 -254 168 -723 272 -1035 33 -102 62 -187 62 -190 1 -3 4 -12 8 -20 3
-8 24 -67 48 -130 100 -273 217 -538 381 -865 66 -132 124 -245 129 -252 6 -6
22 -35 38 -65 136 -262 474 -772 740 -1113 312 -401 728 -846 1070 -1145 35
-30 71 -62 80 -71 49 -48 343 -285 494 -398 254 -190 653 -454 872 -577 28
-15 97 -54 155 -86 101 -57 460 -237 585 -293 281 -127 587 -247 611 -239 10
3 28 10 39 14 11 5 73 30 138 55 109 43 227 92 316 132 20 9 56 25 81 36 106
47 416 200 540 267 371 201 906 549 1184 771 75 60 304 246 312 254 6 5 37 33
69 60 282 241 610 571 904 910 59 68 210 254 256 315 27 36 52 67 55 70 25 21
286 396 432 620 46 70 208 340 208 345 0 3 13 26 29 52 76 126 371 713 371
739 0 2 13 32 29 67 78 170 213 529 300 797 68 211 176 609 197 730 3 14 7 33
10 42 3 9 7 27 9 40 3 13 7 34 10 48 10 46 14 65 33 170 11 58 25 134 31 170
6 36 13 79 16 95 3 17 8 50 10 75 3 25 8 56 10 70 10 57 28 199 40 325 3 33 8
78 10 100 5 44 12 142 20 280 3 49 9 92 13 95 5 3 8 1398 8 3100 l-1 3095
-5693 3 -5693 2 4 -3127z m10560 27 c-1 -2082 -6 -3011 -17 -3130 -2 -25 -7
-94 -11 -155 -3 -60 -8 -121 -10 -135 -2 -14 -6 -56 -10 -95 -3 -38 -8 -81
-10 -95 -2 -14 -7 -47 -10 -75 -10 -93 -35 -263 -50 -343 -2 -12 -9 -50 -15
-85 -6 -34 -18 -93 -25 -132 -8 -38 -17 -82 -20 -97 -13 -68 -17 -86 -30 -138
-8 -30 -16 -66 -18 -80 -3 -14 -12 -50 -21 -80 -8 -30 -17 -66 -20 -80 -7 -41
-74 -265 -126 -425 -159 -488 -364 -959 -608 -1395 -149 -267 -173 -301 -244
-355 -166 -125 -378 -197 -583 -199 -290 -1 -490 51 -1068 283 -351 141 -533
204 -647 225 -14 2 -36 7 -50 10 -144 32 -566 40 -720 12 -14 -2 -43 -7 -65
-10 -106 -15 -269 -55 -402 -100 -59 -20 -106 -30 -114 -26 -8 4 -48 19 -89
33 -257 85 -477 120 -760 121 -117 0 -320 -11 -343 -19 -6 -2 -30 -7 -52 -10
-22 -3 -67 -13 -100 -21 -33 -9 -67 -17 -75 -19 -19 -4 -187 -60 -220 -73 -14
-6 -79 -31 -145 -57 -66 -26 -133 -53 -150 -60 -16 -7 -66 -27 -110 -44 -44
-18 -89 -35 -100 -40 -151 -63 -444 -155 -555 -175 -19 -3 -46 -8 -60 -11 -96
-19 -268 -24 -370 -12 -157 19 -343 95 -480 196 -57 42 -75 64 -136 167 -181
304 -339 617 -490 969 -149 351 -331 912 -400 1235 -2 14 -7 33 -10 42 -3 9
-6 25 -9 35 -2 10 -15 77 -30 148 -15 72 -29 144 -31 160 -3 17 -9 50 -14 75
-8 38 -16 91 -35 220 -7 43 -34 262 -41 330 -8 78 -10 98 -19 215 -3 50 -9
113 -12 140 -6 56 -14 5403 -8 5421 2 9 1266 11 4871 10 l4868 -1 -1 -2275z
m-5609 -7145 c152 -9 325 -43 451 -87 l30 -10 0 -1304 c0 -747 -4 -1304 -9
-1304 -28 0 -445 212 -663 338 l-62 36 39 17 c21 10 53 24 72 33 18 8 62 25
98 37 65 21 122 22 253 4 30 -4 37 -2 38 12 4 79 0 415 -5 420 -16 16 -225 23
-308 10 -51 -8 -193 -55 -268 -89 -235 -107 -285 -129 -325 -143 l-46 -15 -92
62 c-51 35 -101 71 -111 80 -11 10 -25 18 -30 19 -6 0 39 17 99 38 61 21 130
47 155 58 25 11 61 26 80 33 19 7 40 17 45 21 27 20 292 135 380 165 95 32
105 33 210 29 104 -4 164 -11 192 -20 7 -2 15 1 19 7 4 6 7 105 8 219 1 178
-1 210 -14 214 -73 21 -303 26 -395 8 -122 -23 -258 -73 -465 -170 -151 -71
-327 -143 -415 -169 -74 -22 -110 -27 -205 -28 -167 -1 -230 23 -355 138 -54
51 -58 56 -35 56 85 3 240 27 350 56 145 39 281 87 565 201 435 176 503 193
735 188 80 -1 164 -6 188 -10 41 -7 42 -7 43 21 4 112 3 414 -1 414 -3 1 -32
4 -65 7 -33 4 -118 7 -190 7 -146 0 -221 -6 -337 -30 -15 -3 -31 -6 -35 -6
-29 -2 -388 -134 -499 -184 -18 -8 -94 -38 -170 -68 -420 -163 -596 -189 -879
-131 -52 11 -208 77 -260 110 -44 28 -144 130 -153 156 -2 5 35 9 85 10 122 1
162 5 348 34 37 6 229 53 305 75 118 35 529 189 665 250 125 55 295 117 397
144 120 31 147 35 254 42 49 3 90 6 91 7 2 3 90 -1 197 -8z m1761 1 c207 -14
302 -43 770 -231 421 -169 650 -243 865 -281 25 -4 47 -8 50 -9 3 -1 41 -5 85
-10 44 -5 85 -9 90 -10 6 -1 54 -3 108 -3 83 -2 96 -4 85 -16 -7 -7 -32 -35
-54 -62 -23 -27 -53 -61 -65 -76 -20 -22 -132 -83 -174 -95 -177 -50 -204 -54
-320 -55 -202 0 -360 41 -745 197 -427 172 -589 225 -745 242 -90 10 -391 7
-430 -5 l-29 -8 -1 -215 0 -214 40 3 c22 2 121 4 220 5 236 1 263 -6 715 -188
456 -183 630 -233 895 -254 6 -1 -10 -20 -35 -42 -146 -132 -142 -130 -213
-146 -41 -10 -199 -9 -255 1 -52 9 -225 68 -302 103 -30 14 -68 31 -85 38 -16
7 -74 34 -128 59 -54 25 -100 46 -102 46 -3 0 -28 11 -57 24 -156 71 -303 104
-445 101 -97 -2 -235 -14 -243 -22 -10 -9 -5 -433 5 -434 14 -2 15 -2 65 5
241 33 294 21 676 -154 243 -111 228 -104 326 -136 48 -16 88 -31 88 -34 0 -3
-47 -38 -105 -78 -58 -41 -107 -77 -110 -82 -7 -11 -64 10 -253 96 -163 74
-302 126 -372 140 -89 17 -306 7 -319 -14 -3 -6 -6 -104 -6 -219 l1 -208 29 1
c17 1 67 5 111 9 90 8 150 -6 283 -66 64 -29 65 -30 41 -43 -14 -7 -45 -24
-70 -38 -165 -93 -258 -142 -435 -229 -110 -55 -203 -99 -207 -99 -5 0 -8 587
-8 1304 l0 1304 63 20 c54 18 202 52 292 67 17 3 75 8 130 11 55 4 101 7 102
8 3 2 67 -1 178 -8z"/>
<path d="M5547 12336 c-62 -23 -107 -66 -140 -136 -21 -45 -21 -51 -23 -955
-1 -500 -2 -912 -3 -915 -1 -3 -409 -5 -909 -5 -849 0 -910 -1 -954 -18 -58
-23 -113 -74 -138 -129 -18 -41 -19 -84 -17 -1468 l2 -1425 22 -40 c27 -51 60
-81 120 -111 l48 -23 915 -1 915 0 34 117 c18 65 36 132 41 148 5 17 52 179
105 360 53 182 105 359 115 395 10 36 43 151 73 255 71 246 95 335 102 376 3
19 8 42 11 52 12 37 -8 99 -44 139 -43 48 -100 78 -212 112 -73 22 -131 33
-316 62 l-31 4 34 108 c44 137 58 168 75 169 7 1 69 5 138 10 260 17 1052 9
1200 -13 162 -24 255 -80 302 -182 27 -60 33 -187 12 -292 -8 -41 -16 -84 -18
-95 -5 -28 -71 -282 -100 -385 -22 -78 -114 -396 -283 -975 -35 -121 -92 -319
-128 -440 -35 -121 -84 -292 -110 -380 -170 -582 -246 -842 -249 -855 -2 -9
-16 -54 -30 -100 -74 -244 -97 -421 -63 -487 37 -70 120 -101 322 -119 105
-10 2004 -11 2049 -1 83 17 161 101 181 195 4 18 7 436 7 928 l0 894 907 0
c839 0 910 1 955 17 63 23 132 90 148 146 9 32 12 384 13 1442 1 1322 0 1403
-16 1449 -22 60 -67 108 -128 138 l-46 22 -915 1 -915 1 -1 880 c-1 484 -4
902 -9 929 -4 27 -15 66 -26 86 -24 48 -89 103 -138 117 -60 19 -2832 16
-2884 -2z m1613 -1170 c184 -33 353 -154 443 -318 68 -123 94 -319 61 -462
-71 -307 -309 -540 -594 -581 -144 -21 -335 13 -449 78 -208 120 -314 312
-314 567 0 219 72 387 227 532 55 51 155 114 226 142 110 44 283 62 400 42z"/>
</g>
</svg>
